<svg xmlns="http://www.w3.org/2000/svg" viewBox="0 0 394.39 438.22"><defs><style>.cls-1{fill:#fff;}.cls-2{fill:#006a5b;}.cls-3{fill:#116557;}</style></defs><g id="Layer_2" data-name="Layer 2"><g id="Layer_1-2" data-name="Layer 1"><path class="cls-1" d="M355.91,98.55,223,21.28a49.53,49.53,0,0,0-49.65,0L40.37,98.55a50.19,50.19,0,0,0-24.82,43.29V296.38a50.17,50.17,0,0,0,24.82,43.28l132.94,77.28a49.55,49.55,0,0,0,49.65,0l133-77.28a50.17,50.17,0,0,0,24.82-43.28V141.84A50.19,50.19,0,0,0,355.91,98.55Z"/><path class="cls-2" d="M197.2,14.61A49.38,49.38,0,0,1,222,21.28L355,98.55a50.19,50.19,0,0,1,24.82,43.29V296.38A50.17,50.17,0,0,1,355,339.66L222,416.93a49.47,49.47,0,0,1-49.65,0L39.43,339.66a50.17,50.17,0,0,1-24.82-43.28V141.84A50.19,50.19,0,0,1,39.43,98.55L172.37,21.28a49.39,49.39,0,0,1,24.83-6.67M197.2,0A64.08,64.08,0,0,0,165,8.65L32.09,85.93A64.8,64.8,0,0,0,0,141.84V296.38a64.82,64.82,0,0,0,32.09,55.91L165,429.56a64.06,64.06,0,0,0,64.33,0L362.3,352.29a64.82,64.82,0,0,0,32.09-55.91V141.84A64.85,64.85,0,0,0,362.3,85.92L229.36,8.65A64.07,64.07,0,0,0,197.2,0Z"/><path class="cls-3" d="M105.13,282.09h-.74l-.15.72a15.6,15.6,0,0,1-5.12,9.05,14.86,14.86,0,0,1-9.7,3.15c-5.28,0-9.34-1.54-12.08-4.58s-4.16-7.63-4.16-13.58c0-5.58,1.51-10.07,4.5-13.34s7-4.88,12.07-4.88A17.25,17.25,0,0,1,99.26,261a10.13,10.13,0,0,1,4.51,6.63l.15.72h8.77l-.17-1.07a17.4,17.4,0,0,0-7.33-11.86c-4-2.82-9.16-4.25-15.33-4.25-7.84,0-14.19,2.35-18.87,7s-7.06,10.92-7.06,18.69,2.28,14,6.79,18.65,10.64,7,18.19,7c6.49,0,11.93-1.73,16.2-5.13A21.85,21.85,0,0,0,113,283.15l.16-1.06h-8Z"/><polygon class="cls-3" points="164.76 252.46 161.57 252.46 160.66 252.46 160.66 253.37 160.66 300.27 160.66 301.18 161.57 301.18 164.76 301.18 167.94 301.18 168.86 301.18 168.86 300.27 168.86 253.37 168.86 252.46 167.94 252.46 164.76 252.46"/><path class="cls-3" d="M325.27,252.46H318l0,.93.38,14.7c-1.79-1.82-5.12-3.9-11-3.9a15.64,15.64,0,0,0-12,5c-3.05,3.31-4.59,7.69-4.59,13,0,6,1.58,10.87,4.72,14.44s7.46,5.43,12.78,5.43c4.75,0,7.93-1.76,8.3-4.59v-6.15L315,292.91a8.67,8.67,0,0,1-6.4,2.45,8.17,8.17,0,0,1-6.9-3.06c-1.64-2.1-2.47-5.18-2.47-9.16,0-4.23.76-7.33,2.27-9.21s3.8-2.73,7.1-2.73a7.84,7.84,0,0,1,6.87,3.39,17.41,17.41,0,0,1,3,10.24v16.35h7.73V252.46Z"/><path class="cls-3" d="M135.41,264.19c-6,0-10.79,1.81-14.35,5.36s-5.37,8.38-5.37,14.35c0,5.64,1.72,10.13,5.1,13.36s8,4.85,13.88,4.85c4.84,0,8.87-1.05,12-3.11a15.11,15.11,0,0,0,6.32-9.09l.3-1.15h-8.53l-.15.72a6.63,6.63,0,0,1-3.09,4.15,11.19,11.19,0,0,1-6.18,1.7c-3.73,0-6.42-1-8.22-2.95-3.34-3.67-2.42-12-2.41-12.06a10.89,10.89,0,0,1,2.7-6.06,10,10,0,0,1,7.75-3.1c3.21,0,5.65.89,7.27,2.64a10.25,10.25,0,0,1,2.42,5.87H126.2v6.46h27.38l0-.89.08-2h0v0c0-5.62-1.7-10.24-5-13.72S140.84,264.19,135.41,264.19Z"/><path class="cls-3" d="M269.73,264.19c-6,0-10.79,1.81-14.36,5.36S250,277.93,250,283.9c0,5.64,1.72,10.13,5.11,13.36s8.05,4.85,13.88,4.85c4.83,0,8.86-1.05,12-3.11a15.15,15.15,0,0,0,6.32-9.09l.3-1.15h-8.53l-.16.72a6.56,6.56,0,0,1-3.09,4.15,11.14,11.14,0,0,1-6.18,1.7c-3.72,0-6.41-1-8.22-2.95-3.34-3.67-2.41-12-2.4-12.06a10.81,10.81,0,0,1,2.69-6.06,10,10,0,0,1,7.76-3.1c3.2,0,5.65.89,7.27,2.64a10.18,10.18,0,0,1,2.41,5.87H260.51v6.46H287.9l0-.89.08-2h0v0c0-5.62-1.7-10.24-5-13.72S275.16,264.19,269.73,264.19Z"/><polygon class="cls-3" points="248.75 300.27 234.65 253.37 234.38 252.46 233.46 252.46 230.32 252.46 230.28 252.46 228.4 252.46 227.73 252.46 227.53 253.09 226.93 254.96 216.98 286.19 207.03 254.96 206.44 253.09 206.24 252.46 205.57 252.46 203.69 252.46 203.65 252.46 200.51 252.46 199.59 252.46 199.31 253.37 185.22 300.27 184.95 301.18 185.86 301.18 189.04 301.18 192.23 301.18 193.14 301.18 193.42 300.27 203.65 266.24 203.65 266.4 214.52 300.55 214.72 301.18 215.39 301.18 215.64 301.18 218.32 301.18 218.57 301.18 219.24 301.18 219.45 300.55 230.32 266.4 230.32 266.24 240.55 300.27 240.82 301.18 241.74 301.18 244.92 301.18 248.11 301.18 249.02 301.18 248.75 300.27"/><polygon class="cls-3" points="184.95 290.43 184.95 253.37 184.95 252.46 184.03 252.46 180.85 252.46 177.66 252.46 176.75 252.46 176.75 253.37 176.75 300.27 176.75 301.18 177.66 301.18 180.85 301.18 181.72 301.18 181.99 300.27 184.95 290.43"/><path class="cls-3" d="M336,258.86a6.35,6.35,0,0,1,0-12.68,6.32,6.32,0,0,1,6,6.46A6.12,6.12,0,0,1,336,258.86Zm0-11.45a5,5,0,0,0-4.78,5.24,4.87,4.87,0,0,0,4.78,5,4.66,4.66,0,0,0,3.23-1.32h-1.55l-1.82-2.58h-.52v2.58h-2v-7.73h3.12a2.48,2.48,0,0,1,2.62,2.66,2.3,2.3,0,0,1-1.62,2.19l1.94,2.66a5.05,5.05,0,0,0,1.32-3.42C340.72,249.89,338.57,247.41,336,247.41Zm.17,4.56c.51,0,1-.13,1-.75a.87.87,0,0,0-.94-.91h-.87V252Z"/><polygon class="cls-3" points="68.51 197.36 68.51 186.1 145.97 186.1 145.97 211.77 85.69 211.77 85.69 215.01 146.64 215.01 146.64 224.65 68.51 224.65 68.51 200.61 128.8 200.61 128.8 197.36 68.51 197.36"/><polygon class="cls-3" points="95.59 158.33 95.59 143.54 107.23 143.54 107.23 136.95 124.41 136.95 124.41 183.05 107.23 183.05 107.23 158.33 95.59 158.33"/><rect class="cls-3" x="128.8" y="136.95" width="17.18" height="46.1"/><path class="cls-3" d="M155.91,221.25V137.43h42.65v26.33h6.2V137h17.18v87.21H204.76V182.28h-6.2v39ZM172.13,152V206.7h10.21V152ZM243,137v87.21H225.85V137Z"/><path class="cls-3" d="M336.2,208.42v15.74H250.56V208.42Zm-80.3-11.61V136.75h72.74v15.08H275.18v29.9H329.5v15.08Z"/><path class="cls-3" d="M72.59,178.2A42,42,0,0,0,79,167.61a60.68,60.68,0,0,0,6.37,9.78,40.88,40.88,0,0,0,7.76,7.67l11.45-11c-11.52-10.22-17.28-20.68-17.28-35v-1.69H69.14v2.22c0,16-5.87,26.3-17.59,36.6l12.65,8.88C66.27,184.48,70.3,181,72.59,178.2Z"/></g></g></svg>